# xmcd
#
# Track frame offsets:
# 150
# 15401
# 31156
# 44956
# 59476
# 75264
# 90996
# 107007
# 122534
# 144434
# 161795
# 176031
# 189225
# 202612
# 216838
# 234147
# 248749
# 262564
# 276273
# 290676
# 305277
# 322357
#
# Disc length: 4473 seconds
#
# Revision: 0
# Processed by: cddbd v1.5.2PL0 Copyright (c) Steve Scherf et al.
# Submitted via: Audion 3.0.2 (http://www.panic.com/audion/)
#
DISCID=26117716
DTITLE=VARIOS - REGGAETON
DYEAR=1900
DGENRE=
TTITLE0=LUNA DILE-NIGA
TTITLE1=SEXY MOVIMIENTO-W and Y
TTITLE2=IMAGINATE-GELLENOQUIEN NO LLORA POR AMOR-NIGA Y DON OMAR
TTITLE3=QUIEN NO LLORA POR AMOR-NIGA Y DON OMAR
TTITLE4=LA FUGA-DADDY YANKEE
TTITLE5=ELLA ME LEVANTO-DADDY YAKEE
TTITLE6=MORIRE-LA FACTORIA
TTITLE7=FUE POR ALEJARTE DE MI-NIGA
TTITLE8=NO TE VEO RMX-RANDY
TTITLE9=CANCION DE AMOR-AVENTURA Y DON OMAR
TTITLE10=CARITA DE ANGEL-ALGEL Y KRIZ
TTITLE11=NENA ME GUSTAS-DIVINO
TTITLE12=TE CONOZCO -ALEXIS Y FIDO
TTITLE13=MIS DIAS SIN TI-KEN FEAT DADDY YANKEE
TTITLE14=DALE PA FUERA-LA FACTORIA
TTITLE15=FUEGO- W Y Y
TTITLE16=MAR Y CIELO-TITO NIEVES feat RALIN Y KEN
TTITLE17=MUJER MARAVILLOSA-ARCANGEL
TTITLE18=UNA NOCHE MAS-TREBOL CLAN
TTITLE19=TE QUIERO -NIGA
TTITLE20=MENSAJE DE TEXTO-EDDIE DEE
TTITLE21=PROSIGO - DON OMAR
EXTD=
EXTT0=
EXTT1=
EXTT2=
EXTT3=
EXTT4=
EXTT5=
EXTT6=
EXTT7=
EXTT8=
EXTT9=
EXTT10=
EXTT11=
EXTT12=
EXTT13=
EXTT14=
EXTT15=
EXTT16=
EXTT17=
EXTT18=
EXTT19=
EXTT20=
EXTT21=
PLAYORDER=
